<svg width="46" height="46" viewBox="0 0 46 46" fill="none" xmlns="http://www.w3.org/2000/svg">
<rect y="4" width="46" height="36" rx="4" fill="#FF1493"/>
<path d="M21.272 36.056C19.5227 36.056 17.9547 35.1387 16.568 33.304C15.1813 31.4693 13.784 28.8773 12.376 25.528C9.45333 28.92 7.384 32.408 6.168 35.992C4.41867 34.8613 3.53333 33.6773 3.512 32.44C3.49067 31.2027 4.12 29.7947 5.4 28.216C6.68 26.6373 8.568 24.6533 11.064 22.264C10.936 21.9227 10.7013 21.3253 10.36 20.472C10.0187 19.6187 9.72 18.872 9.464 18.232C9.208 17.5707 9.016 17.112 8.888 16.856C8.78133 16.6 8.61067 16.1947 8.376 15.64C8.14133 15.0853 7.94933 14.6693 7.8 14.392C7.65067 14.0933 7.45867 13.7093 7.224 13.24C7.01067 12.7707 6.81867 12.3867 6.648 12.088C6.11467 11.2133 5.69867 10.5733 5.4 10.168C6.616 9.592 7.608 9.304 8.376 9.304C9.144 9.304 9.752 9.50667 10.2 9.912C10.6693 10.296 11.1707 11.0747 11.704 12.248C12.2587 13.4 12.6533 14.2747 12.888 14.872C13.1227 15.4693 13.4213 16.3013 13.784 17.368C14.168 18.4133 14.3813 18.9893 14.424 19.096C16.5787 16.984 18.264 15.128 19.48 13.528C20.696 11.928 21.336 10.456 21.4 9.112C22.2533 9.47467 22.8933 9.944 23.32 10.52C23.7467 11.096 23.96 11.6507 23.96 12.184C23.96 12.696 23.8213 13.2507 23.544 13.848C23.288 14.424 22.84 15.064 22.2 15.768C21.5813 16.472 20.9947 17.0907 20.44 17.624C19.9067 18.1573 19.1173 18.904 18.072 19.864C17.0267 20.824 16.1947 21.6027 15.576 22.2C17.9653 28.3867 20.5467 32.952 23.32 35.896C22.7653 36.0027 22.0827 36.056 21.272 36.056ZM37.5568 24.312L34.4848 24.28C33.6101 24.28 32.9381 24.2907 32.4688 24.312C32.1274 27.2987 31.9568 29.72 31.9568 31.576C31.9568 33.432 32.0208 34.7333 32.1488 35.48C31.4661 35.5227 31.0181 35.544 30.8048 35.544C29.5888 35.544 28.7141 35.3307 28.1808 34.904C27.6474 34.4773 27.3808 33.7307 27.3808 32.664C27.3808 31.576 27.6794 28.984 28.2768 24.888C27.5941 25.1013 27.0928 25.2827 26.7728 25.432C26.7301 24.9627 26.7088 24.6107 26.7088 24.376C26.7088 22.904 27.3808 21.9867 28.7248 21.624C29.1301 18.7013 29.3754 16.1733 29.4608 14.04C28.3728 14.04 27.6794 13.8907 27.3808 13.592C27.1034 13.2933 26.9648 12.632 26.9648 11.608C27.0501 10.648 27.1354 10.0187 27.2208 9.72C29.6314 10.04 32.2768 10.2 35.1568 10.2C38.0368 10.2 40.8208 9.944 43.5088 9.432C43.2101 11.672 41.8448 13.016 39.4128 13.464C38.0901 13.72 36.2021 13.8907 33.7488 13.976C33.7274 14.2533 33.4181 16.7387 32.8208 21.432C34.0581 21.4747 34.9008 21.496 35.3488 21.496C37.3754 21.496 38.8154 21.144 39.6688 20.44C39.7114 20.8667 39.7328 21.1867 39.7328 21.4C39.7328 23.3413 39.0074 24.312 37.5568 24.312Z" fill="white"/>
</svg>
