<svg width="177" height="46" viewBox="0 0 177 46" fill="none" xmlns="http://www.w3.org/2000/svg">
<path d="M18.272 36.056C16.5227 36.056 14.9547 35.1387 13.568 33.304C12.1813 31.4693 10.784 28.8773 9.376 25.528C6.45333 28.92 4.384 32.408 3.168 35.992C1.41867 34.8613 0.533333 33.6773 0.512 32.44C0.490667 31.2027 1.12 29.7947 2.4 28.216C3.68 26.6373 5.568 24.6533 8.064 22.264C7.936 21.9227 7.70133 21.3253 7.36 20.472C7.01867 19.6187 6.72 18.872 6.464 18.232C6.208 17.5707 6.016 17.112 5.888 16.856C5.78133 16.6 5.61067 16.1947 5.376 15.64C5.14133 15.0853 4.94933 14.6693 4.8 14.392C4.65067 14.0933 4.45867 13.7093 4.224 13.24C4.01067 12.7707 3.81867 12.3867 3.648 12.088C3.11467 11.2133 2.69867 10.5733 2.4 10.168C3.616 9.592 4.608 9.304 5.376 9.304C6.144 9.304 6.752 9.50667 7.2 9.912C7.66933 10.296 8.17067 11.0747 8.704 12.248C9.25867 13.4 9.65333 14.2747 9.888 14.872C10.1227 15.4693 10.4213 16.3013 10.784 17.368C11.168 18.4133 11.3813 18.9893 11.424 19.096C13.5787 16.984 15.264 15.128 16.48 13.528C17.696 11.928 18.336 10.456 18.4 9.112C19.2533 9.47467 19.8933 9.944 20.32 10.52C20.7467 11.096 20.96 11.6507 20.96 12.184C20.96 12.696 20.8213 13.2507 20.544 13.848C20.288 14.424 19.84 15.064 19.2 15.768C18.5813 16.472 17.9947 17.0907 17.44 17.624C16.9067 18.1573 16.1173 18.904 15.072 19.864C14.0267 20.824 13.1947 21.6027 12.576 22.2C14.9653 28.3867 17.5467 32.952 20.32 35.896C19.7653 36.0027 19.0827 36.056 18.272 36.056Z" fill="#FF1493"/>
<path d="M34.5568 24.312L31.4848 24.28C30.6101 24.28 29.9381 24.2907 29.4688 24.312C29.1274 27.2987 28.9568 29.72 28.9568 31.576C28.9568 33.432 29.0208 34.7333 29.1488 35.48C28.4661 35.5227 28.0181 35.544 27.8048 35.544C26.5888 35.544 25.7141 35.3307 25.1808 34.904C24.6474 34.4773 24.3808 33.7307 24.3808 32.664C24.3808 31.576 24.6794 28.984 25.2768 24.888C24.5941 25.1013 24.0928 25.2827 23.7728 25.432C23.7301 24.9627 23.7088 24.6107 23.7088 24.376C23.7088 22.904 24.3808 21.9867 25.7248 21.624C26.1301 18.7013 26.3754 16.1733 26.4608 14.04C25.3728 14.04 24.6794 13.8907 24.3808 13.592C24.1034 13.2933 23.9648 12.632 23.9648 11.608C24.0501 10.648 24.1354 10.0187 24.2208 9.72C26.6314 10.04 29.2768 10.2 32.1568 10.2C35.0368 10.2 37.8208 9.944 40.5088 9.432C40.2101 11.672 38.8448 13.016 36.4128 13.464C35.0901 13.72 33.2021 13.8907 30.7488 13.976C30.7274 14.2533 30.4181 16.7387 29.8208 21.432C31.0581 21.4747 31.9008 21.496 32.3488 21.496C34.3754 21.496 35.8154 21.144 36.6688 20.44C36.7114 20.8667 36.7328 21.1867 36.7328 21.4C36.7328 23.3413 36.0074 24.312 34.5568 24.312ZM44.0458 28.952C44.0458 29.9547 44.2271 30.776 44.5898 31.416C44.9738 32.0347 45.5071 32.344 46.1898 32.344C47.1924 32.344 48.1418 31.7573 49.0378 30.584C49.9551 29.4107 50.6804 27.9067 51.2138 26.072C51.7684 24.2373 52.0458 22.4987 52.0458 20.856C52.0458 19.192 51.9818 17.848 51.8538 16.824C52.4938 16.7813 52.9418 16.76 53.1978 16.76C54.2858 16.76 55.1071 16.9627 55.6618 17.368C56.2164 17.7733 56.4938 18.4987 56.4938 19.544C56.4938 19.9493 56.2378 21.6027 55.7257 24.504C55.2138 27.384 54.9578 29.6987 54.9578 31.448C54.9578 33.176 55.2884 34.712 55.9498 36.056C54.3498 35.7787 53.1764 35.192 52.4298 34.296C51.6831 33.3787 51.3098 32.0667 51.3098 30.36C51.3098 30.0613 51.3524 29.4853 51.4378 28.632C50.8618 30.6587 49.8378 32.2907 48.3658 33.528C46.8938 34.7653 45.4431 35.384 44.0138 35.384C42.6058 35.384 41.4644 34.8613 40.5898 33.816C39.7364 32.7493 39.3098 31.2453 39.3098 29.304C39.3098 27.3627 39.6511 25.4853 40.3338 23.672C41.0378 21.8373 42.0831 20.2907 43.4698 19.032C44.8564 17.752 46.4031 17.112 48.1098 17.112C49.0911 17.112 50.0938 17.3467 51.1178 17.816C48.9631 18.584 47.2458 20.0987 45.9658 22.36C44.6858 24.6 44.0458 26.7973 44.0458 28.952ZM72.7423 16.536C74.0009 16.536 74.8969 16.9307 75.4303 17.72C75.9849 18.488 76.2623 19.544 76.2623 20.888C76.2623 22.2107 76.0489 24.0773 75.6223 26.488C75.2169 28.8987 75.0143 30.6587 75.0143 31.768C75.0143 32.856 75.1529 33.656 75.4303 34.168C75.7076 34.6587 76.1769 35.0853 76.8383 35.448C76.5609 35.4693 76.1663 35.48 75.6543 35.48C73.8623 35.48 72.5823 35.2027 71.8143 34.648C71.0676 34.0933 70.6943 33.1227 70.6943 31.736C70.6943 30.9467 70.9076 29.4107 71.3343 27.128C71.7609 24.824 71.9743 23.1067 71.9743 21.976C71.9743 20.568 71.5476 19.864 70.6943 19.864C70.2036 19.864 69.6489 20.152 69.0303 20.728C68.4116 21.304 67.8143 22.0933 67.2383 23.096C66.6623 24.0773 66.1823 25.3467 65.7983 26.904C65.4143 28.4613 65.2223 30.0187 65.2223 31.576C65.2223 33.112 65.2863 34.2533 65.4143 35C64.7316 35.0427 64.2836 35.064 64.0703 35.064C62.8543 35.064 61.9796 34.8507 61.4463 34.424C60.9129 33.9973 60.6463 33.2933 60.6463 32.312C60.6463 31.8853 60.8703 30.2427 61.3183 27.384C61.7663 24.5253 61.9903 22.2533 61.9903 20.568C61.9903 18.8613 61.8089 17.2933 61.4463 15.864C63.0036 16.3547 64.0916 17.0587 64.7103 17.976C65.3289 18.872 65.6383 19.9067 65.6383 21.08C65.6383 22.232 65.5103 23.576 65.2543 25.112C65.9583 22.7227 67.0676 20.696 68.5823 19.032C70.0969 17.368 71.4836 16.536 72.7423 16.536ZM87.5255 18.424C86.9282 18.424 86.3948 18.6267 85.9255 19.032C85.4562 19.416 85.2215 19.9707 85.2215 20.696C85.2215 21.4213 85.4668 22.104 85.9575 22.744C86.4695 23.384 87.0882 23.9493 87.8135 24.44C88.5388 24.9093 89.2642 25.4 89.9895 25.912C90.7362 26.4027 91.3868 27.0213 91.9415 27.768C92.4962 28.4933 92.8055 29.304 92.8695 30.2C92.8695 31.736 92.2082 33.0267 90.8855 34.072C89.5628 35.1173 87.9202 35.64 85.9575 35.64C83.9948 35.64 82.4482 35.2453 81.3175 34.456C80.2082 33.6667 79.6535 32.76 79.6535 31.736C79.6535 30.712 79.9628 29.8907 80.5815 29.272C81.2215 28.632 82.0108 28.312 82.9495 28.312C83.4402 28.312 83.8988 28.3973 84.3255 28.568C83.6428 29.2933 83.3015 30.0613 83.3015 30.872C83.3015 31.6827 83.5255 32.3333 83.9735 32.824C84.4215 33.3147 85.0295 33.56 85.7975 33.56C86.5655 33.56 87.2055 33.368 87.7175 32.984C88.2508 32.5787 88.5175 32.0667 88.5175 31.448C88.5175 30.808 88.3362 30.2427 87.9735 29.752C87.6108 29.2613 87.1522 28.8347 86.5975 28.472C86.0642 28.088 85.4775 27.6613 84.8375 27.192C84.1975 26.7227 83.6002 26.2533 83.0455 25.784C82.5122 25.2933 82.0642 24.6853 81.7015 23.96C81.3388 23.2133 81.1575 22.4027 81.1575 21.528C81.1575 20.0133 81.7762 18.776 83.0135 17.816C84.2722 16.8347 85.8295 16.344 87.6855 16.344C89.5628 16.344 90.9282 16.7067 91.7815 17.432C92.6562 18.1573 93.0935 19.0107 93.0935 19.992C93.0935 20.952 92.7842 21.7733 92.1655 22.456C91.5682 23.1387 90.7895 23.48 89.8295 23.48C89.3602 23.48 88.8268 23.384 88.2295 23.192C88.6988 22.7867 89.0615 22.328 89.3175 21.816C89.5735 21.2827 89.7015 20.76 89.7015 20.248C89.7015 19.736 89.4882 19.3093 89.0615 18.968C88.6348 18.6053 88.1228 18.424 87.5255 18.424Z" fill="white"/>
<rect x="95" y="2" width="82" height="42" rx="5" fill="#FF1493"/>
<path d="M98.64 11.928C98.6827 11.096 98.768 10.456 98.896 10.008C101.2 10.392 103.963 10.584 107.184 10.584C110.405 10.584 113.776 10.2 117.296 9.432C116.933 12.1413 115.557 13.624 113.168 13.88C112.421 13.9867 111.269 14.0933 109.712 14.2C109.669 14.8187 109.317 17.528 108.656 22.328C107.995 27.1067 107.664 30.4027 107.664 32.216C107.664 34.0293 107.813 35.288 108.112 35.992C106.299 35.5227 105.061 34.904 104.4 34.136C103.739 33.3467 103.408 32.376 103.408 31.224C103.408 30.072 103.675 27.576 104.208 23.736C104.763 19.8747 105.093 16.7707 105.2 14.424C103.472 14.5093 101.776 14.552 100.112 14.552C99.1307 14.552 98.64 13.6773 98.64 11.928ZM127.951 16.536C128.591 16.4933 129.039 16.472 129.295 16.472C130.404 16.472 131.247 16.6747 131.823 17.08C132.399 17.4853 132.687 18.232 132.687 19.32C132.687 19.6613 132.484 21.1653 132.079 23.832C131.674 26.4773 131.471 28.7493 131.471 30.648C131.471 32.5467 131.674 34.2213 132.079 35.672C130.479 35.16 129.37 34.4347 128.751 33.496C128.132 32.5573 127.823 31.3947 127.823 30.008C127.823 29.4747 127.94 28.2693 128.175 26.392C127.514 28.824 126.5 30.872 125.135 32.536C123.791 34.1787 122.522 35 121.327 35C118.874 35 117.647 33.2293 117.647 29.688C117.647 28.5147 117.818 26.8827 118.159 24.792C118.522 22.68 118.703 21.08 118.703 19.992C118.703 18.904 118.554 17.8053 118.255 16.696C120.026 16.696 121.306 16.9307 122.095 17.4C122.906 17.848 123.311 18.7547 123.311 20.12C123.311 20.8453 123.087 22.2853 122.639 24.44C122.191 26.5947 121.967 28.216 121.967 29.304C121.967 30.8827 122.394 31.672 123.247 31.672C123.674 31.672 124.164 31.384 124.719 30.808C125.274 30.2107 125.807 29.432 126.319 28.472C126.831 27.4907 127.258 26.2747 127.599 24.824C127.962 23.352 128.143 21.8693 128.143 20.376C128.143 18.8613 128.079 17.5813 127.951 16.536ZM139.389 4.376C140.904 4.78133 141.939 5.51733 142.493 6.584C143.069 7.62933 143.357 8.792 143.357 10.072C143.357 11.352 143.155 13.5387 142.749 16.632C142.344 19.704 142.067 22.1573 141.917 23.992C142.557 21.7093 143.464 19.896 144.637 18.552C145.832 17.208 147.112 16.536 148.477 16.536C149.843 16.536 151.016 17.1867 151.997 18.488C153 19.7893 153.501 21.4533 153.501 23.48C153.501 26.616 152.659 29.3253 150.973 31.608C149.309 33.8693 147.4 35 145.245 35C144.499 35 143.752 34.8293 143.005 34.488C143.923 34.232 144.755 33.7093 145.501 32.92C146.248 32.1307 146.856 31.224 147.325 30.2C148.285 28.0667 148.765 25.9333 148.765 23.8C148.765 22.7547 148.563 21.8373 148.157 21.048C147.773 20.2587 147.251 19.864 146.589 19.864C145.523 19.864 144.435 20.952 143.325 23.128C142.237 25.304 141.661 28.0133 141.597 31.256V31.864C141.64 32.6107 141.821 33.848 142.141 35.576C139.069 34.872 137.533 32.664 137.533 28.952C137.533 27.4373 137.885 24.3867 138.589 19.8C139.315 15.2133 139.677 11.864 139.677 9.752C139.677 7.64 139.581 5.848 139.389 4.376ZM164.593 27.128C163.569 27.128 162.567 27.0107 161.585 26.776C161.564 26.9893 161.553 27.32 161.553 27.768C161.553 29.5387 161.884 30.872 162.545 31.768C163.207 32.664 163.996 33.112 164.913 33.112C165.831 33.112 166.705 32.8347 167.537 32.28C168.369 31.7253 169.095 30.9573 169.713 29.976C170.481 30.1467 170.865 30.5413 170.865 31.16C168.988 34.04 166.567 35.48 163.601 35.48C161.809 35.48 160.241 34.7973 158.897 33.432C157.553 32.0453 156.881 30.1253 156.881 27.672C156.881 25.8373 157.233 24.0987 157.937 22.456C158.641 20.792 159.761 19.3947 161.297 18.264C162.833 17.112 164.529 16.536 166.385 16.536C168.263 16.536 169.639 16.9627 170.513 17.816C171.388 18.6693 171.825 19.7893 171.825 21.176C171.825 23.1813 171.121 24.6747 169.713 25.656C168.327 26.6373 166.62 27.128 164.593 27.128ZM165.937 18.52C164.849 18.52 163.932 19.192 163.185 20.536C162.439 21.88 161.948 23.512 161.713 25.432H162.193C164.049 25.432 165.415 24.952 166.289 23.992C167.185 23.032 167.633 21.88 167.633 20.536C167.633 19.9813 167.484 19.512 167.185 19.128C166.908 18.7227 166.492 18.52 165.937 18.52Z" fill="white"/>
</svg>
